HIERARCHY
ROOT Root
{
  OFFSET 0.0 0.0 0.0
  CHANNELS 6 Xposition Yposition Zposition Zrotation Yrotation Xrotation
  JOINT Hips
  {
    OFFSET 0.0 100.0 0.0
    CHANNELS 6 Xposition Yposition Zposition Zrotation Yrotation Xrotation
    JOINT Spine1
    {
      OFFSET 5.003913 -0.037094 -0.013727
      CHANNELS 3 Zrotation Yrotation Xrotation
      JOINT Spine2
      {
        OFFSET 7.125363 -1e-06 0.0
        CHANNELS 3 Zrotation Yrotation Xrotation
        JOINT Chest
        {
          OFFSET 7.594027 1e-06 0.0
          CHANNELS 3 Zrotation Yrotation Xrotation
          JOINT Neck1
          {
            OFFSET 26.313086 -0.460272 -0.181672
            CHANNELS 3 Zrotation Yrotation Xrotation
            JOINT Neck2
            {
              OFFSET 8.045911 0.0 0.0
              CHANNELS 3 Zrotation Yrotation Xrotation
              JOINT Head
              {
                OFFSET 6.432774 0.0 0.0
                CHANNELS 3 Zrotation Yrotation Xrotation
                JOINT HeadEnd
                {
                  OFFSET 16.169773 0.06451 0.00362
                  CHANNELS 3 Zrotation Yrotation Xrotation
                }
                JOINT Jaw
                {
                  OFFSET 0.108741 3.12938 0.002639
                  CHANNELS 3 Zrotation Yrotation Xrotation
                }
                JOINT LeftEye
                {
                  OFFSET 4.45173 8.166359 3.206392
                  CHANNELS 3 Zrotation Yrotation Xrotation
                }
                JOINT RightEye
                {
                  OFFSET 4.436895 8.135758 -3.222429
                  CHANNELS 3 Zrotation Yrotation Xrotation
                }
              }
            }
          }
          JOINT LeftShoulder
          {
            OFFSET 23.218927 5.195579 1.621656
            CHANNELS 3 Zrotation Yrotation Xrotation
            JOINT LeftArm
            {
              OFFSET 15.902118 2e-06 -2e-06
              CHANNELS 3 Zrotation Yrotation Xrotation
              JOINT LeftForeArm
              {
                OFFSET 28.739307 0.0 -1e-06
                CHANNELS 3 Zrotation Yrotation Xrotation
                JOINT LeftHand
                {
                  OFFSET 27.093981 -4e-06 0.0
                  CHANNELS 3 Zrotation Yrotation Xrotation
                  JOINT LeftHandThumb1
                  {
                    OFFSET 2.276781 3.380274 0.83384
                    CHANNELS 3 Zrotation Yrotation Xrotation
                    JOINT LeftHandThumb2
                    {
                      OFFSET 4.705309 -1e-06 -1e-06
                      CHANNELS 3 Zrotation Yrotation Xrotation
                      JOINT LeftHandThumb3
                      {
                        OFFSET 2.798515 0.0 3e-06
                        CHANNELS 3 Zrotation Yrotation Xrotation
                        JOINT LeftHandThumbEnd
                        {
                          OFFSET 3.180793 4e-06 -4e-06
                          CHANNELS 3 Zrotation Yrotation Xrotation
                        }
                      }
                    }
                  }
                  JOINT LeftHandIndex1
                  {
                    OFFSET 3.247786 2.352677 0.137192
                    CHANNELS 3 Zrotation Yrotation Xrotation
                    JOINT LeftHandIndex2
                    {
                      OFFSET 6.367095 1e-06 0.0
                      CHANNELS 3 Zrotation Yrotation Xrotation
                      JOINT LeftHandIndex3
                      {
                        OFFSET 3.662364 0.0 0.0
                        CHANNELS 3 Zrotation Yrotation Xrotation
                        JOINT LeftHandIndex4
                        {
                          OFFSET 2.329242 4e-06 -4e-06
                          CHANNELS 3 Zrotation Yrotation Xrotation
                          JOINT LeftHandIndexEnd
                          {
                            OFFSET 2.767823 1e-06 0.0
                            CHANNELS 3 Zrotation Yrotation Xrotation
                          }
                        }
                      }
                    }
                  }
                  JOINT LeftHandMiddle1
                  {
                    OFFSET 3.163612 0.945023 -0.406112
                    CHANNELS 3 Zrotation Yrotation Xrotation
                    JOINT LeftHandMiddle2
                    {
                      OFFSET 6.276789 3e-06 0.0
                      CHANNELS 3 Zrotation Yrotation Xrotation
                      JOINT LeftHandMiddle3
                      {
                        OFFSET 4.35652 -1e-06 4e-06
                        CHANNELS 3 Zrotation Yrotation Xrotation
                        JOINT LeftHandMiddle4
                        {
                          OFFSET 2.996877 0.0 8e-06
                          CHANNELS 3 Zrotation Yrotation Xrotation
                          JOINT LeftHandMiddleEnd
                          {
                            OFFSET 2.323256 3e-06 -4e-06
                            CHANNELS 3 Zrotation Yrotation Xrotation
                          }
                        }
                      }
                    }
                  }
                  JOINT LeftHandRing1
                  {
                    OFFSET 2.882606 -0.309162 0.107445
                    CHANNELS 3 Zrotation Yrotation Xrotation
                    JOINT LeftHandRing2
                    {
                      OFFSET 6.033198 0.0 4e-06
                      CHANNELS 3 Zrotation Yrotation Xrotation
                      JOINT LeftHandRing3
                      {
                        OFFSET 4.350578 3e-06 0.0
                        CHANNELS 3 Zrotation Yrotation Xrotation
                        JOINT LeftHandRing4
                        {
                          OFFSET 2.651321 2e-06 -7e-06
                          CHANNELS 3 Zrotation Yrotation Xrotation
                          JOINT LeftHandRingEnd
                          {
                            OFFSET 1.937663 1e-06 -4e-06
                            CHANNELS 3 Zrotation Yrotation Xrotation
                          }
                        }
                      }
                    }
                  }
                  JOINT LeftHandPinky1
                  {
                    OFFSET 2.865315 -1.525436 0.575687
                    CHANNELS 3 Zrotation Yrotation Xrotation
                    JOINT LeftHandPinky2
                    {
                      OFFSET 5.54936 1e-06 -8e-06
                      CHANNELS 3 Zrotation Yrotation Xrotation
                      JOINT LeftHandPinky3
                      {
                        OFFSET 3.070974 0.0 -4e-06
                        CHANNELS 3 Zrotation Yrotation Xrotation
                        JOINT LeftHandPinky4
                        {
                          OFFSET 1.549672 1e-06 0.0
                          CHANNELS 3 Zrotation Yrotation Xrotation
                          JOINT LeftHandPinkyEnd
                          {
                            OFFSET 1.952123 0.0 0.0
                            CHANNELS 3 Zrotation Yrotation Xrotation
                          }
                        }
                      }
                    }
                  }
                }
              }
            }
          }
          JOINT RightShoulder
          {
            OFFSET 23.161716 5.296122 -1.380114
            CHANNELS 3 Zrotation Yrotation Xrotation
            JOINT RightArm
            {
              OFFSET -16.027195 -2e-06 1.1e-05
              CHANNELS 3 Zrotation Yrotation Xrotation
              JOINT RightForeArm
              {
                OFFSET -28.736639 4e-06 2e-06
                CHANNELS 3 Zrotation Yrotation Xrotation
                JOINT RightHand
                {
                  OFFSET -27.133619 6e-06 0.0
                  CHANNELS 3 Zrotation Yrotation Xrotation
                  JOINT RightHandThumb1
                  {
                    OFFSET -2.274328 -3.351035 -0.83067
                    CHANNELS 3 Zrotation Yrotation Xrotation
                    JOINT RightHandThumb2
                    {
                      OFFSET -4.703594 -3e-06 2e-06
                      CHANNELS 3 Zrotation Yrotation Xrotation
                      JOINT RightHandThumb3
                      {
                        OFFSET -2.794935 -4e-06 -3e-06
                        CHANNELS 3 Zrotation Yrotation Xrotation
                        JOINT RightHandThumbEnd
                        {
                          OFFSET -3.183852 4e-06 1e-06
                          CHANNELS 3 Zrotation Yrotation Xrotation
                        }
                      }
                    }
                  }
                  JOINT RightHandIndex1
                  {
                    OFFSET -3.253496 -2.33755 -0.127667
                    CHANNELS 3 Zrotation Yrotation Xrotation
                    JOINT RightHandIndex2
                    {
                      OFFSET -6.344434 0.0 0.0
                      CHANNELS 3 Zrotation Yrotation Xrotation
                      JOINT RightHandIndex3
                      {
                        OFFSET -3.654871 0.0 -8e-06
                        CHANNELS 3 Zrotation Yrotation Xrotation
                        JOINT RightHandIndex4
                        {
                          OFFSET -2.327586 -1e-06 0.0
                          CHANNELS 3 Zrotation Yrotation Xrotation
                          JOINT RightHandIndexEnd
                          {
                            OFFSET -2.770001 3e-06 8e-06
                            CHANNELS 3 Zrotation Yrotation Xrotation
                          }
                        }
                      }
                    }
                  }
                  JOINT RightHandMiddle1
                  {
                    OFFSET -3.168223 -0.944764 0.411762
                    CHANNELS 3 Zrotation Yrotation Xrotation
                    JOINT RightHandMiddle2
                    {
                      OFFSET -6.266691 -1e-06 -4e-06
                      CHANNELS 3 Zrotation Yrotation Xrotation
                      JOINT RightHandMiddle3
                      {
                        OFFSET -4.348901 0.0 0.0
                        CHANNELS 3 Zrotation Yrotation Xrotation
                        JOINT RightHandMiddle4
                        {
                          OFFSET -3.00024 2e-06 -4e-06
                          CHANNELS 3 Zrotation Yrotation Xrotation
                          JOINT RightHandMiddleEnd
                          {
                            OFFSET -2.321477 -4e-06 -4e-06
                            CHANNELS 3 Zrotation Yrotation Xrotation
                          }
                        }
                      }
                    }
                  }
                  JOINT RightHandRing1
                  {
                    OFFSET -2.885654 0.293261 -0.119232
                    CHANNELS 3 Zrotation Yrotation Xrotation
                    JOINT RightHandRing2
                    {
                      OFFSET -6.032835 -1e-06 -4e-06
                      CHANNELS 3 Zrotation Yrotation Xrotation
                      JOINT RightHandRing3
                      {
                        OFFSET -4.33881 0.0 -4e-06
                        CHANNELS 3 Zrotation Yrotation Xrotation
                        JOINT RightHandRing4
                        {
                          OFFSET -2.654903 -4e-06 -4e-06
                          CHANNELS 3 Zrotation Yrotation Xrotation
                          JOINT RightHandRingEnd
                          {
                            OFFSET -1.935122 0.0 4e-06
                            CHANNELS 3 Zrotation Yrotation Xrotation
                          }
                        }
                      }
                    }
                  }
                  JOINT RightHandPinky1
                  {
                    OFFSET -2.866241 1.503904 -0.60527
                    CHANNELS 3 Zrotation Yrotation Xrotation
                    JOINT RightHandPinky2
                    {
                      OFFSET -5.553177 -2e-06 0.0
                      CHANNELS 3 Zrotation Yrotation Xrotation
                      JOINT RightHandPinky3
                      {
                        OFFSET -3.062664 -1e-06 -4e-06
                        CHANNELS 3 Zrotation Yrotation Xrotation
                        JOINT RightHandPinky4
                        {
                          OFFSET -1.546529 2e-06 4e-06
                          CHANNELS 3 Zrotation Yrotation Xrotation
                          JOINT RightHandPinkyEnd
                          {
                            OFFSET -1.952341 0.0 -4e-06
                            CHANNELS 3 Zrotation Yrotation Xrotation
                          }
                        }
                      }
                    }
                  }
                }
              }
            }
          }
        }
      }
    }
    JOINT LeftLeg
    {
      OFFSET -8.443107 2.567604 10.043214
      CHANNELS 3 Zrotation Yrotation Xrotation
      JOINT LeftShin
      {
        OFFSET 43.229198 1e-06 -1e-06
        CHANNELS 3 Zrotation Yrotation Xrotation
        JOINT LeftFoot
        {
          OFFSET 42.298611 1e-06 1e-06
          CHANNELS 3 Zrotation Yrotation Xrotation
          JOINT LeftToeBase
          {
            OFFSET 14.165858 1e-06 0.0
            CHANNELS 3 Zrotation Yrotation Xrotation
            JOINT LeftToeEnd
            {
              OFFSET 6.7141 -0.234461 0.0
              CHANNELS 3 Zrotation Yrotation Xrotation
            }
          }
        }
      }
    }
    JOINT RightLeg
    {
      OFFSET -8.303923 2.592729 -10.047278
      CHANNELS 3 Zrotation Yrotation Xrotation
      JOINT RightShin
      {
        OFFSET -43.369682 0.0 1e-06
        CHANNELS 3 Zrotation Yrotation Xrotation
        JOINT RightFoot
        {
          OFFSET -42.260784 4e-06 2e-06
          CHANNELS 3 Zrotation Yrotation Xrotation
          JOINT RightToeBase
          {
            OFFSET -14.222245 -2e-06 -1e-06
            CHANNELS 3 Zrotation Yrotation Xrotation
            JOINT RightToeEnd
            {
              OFFSET -6.660062 0.232574 -2e-06
              CHANNELS 3 Zrotation Yrotation Xrotation
            }
          }
        }
      }
    }
  }
}
MOTION
Frames: 5
Frame Time: 0.03333333333333333
0.0 0.0 0.0 0.0 -0.0 0.0 -0.653988 99.885757 0.909657 90.403358 3.31685 92.143776 -6.387635 -0.274404 -0.028563 -13.101498 -0.576996 0.141707 19.992115 0.682803 -2.147626 19.262144 -1.113919 2.356998 -2.629306 -0.47396 1.653771 -25.254002 0.986389 -0.064841 6e-06 0.0 0.0 0.017761 0.009226 0.077297 -0.059382 0.046392 0.073144 -0.029416 -0.031722 0.090535 -117.475418 -79.714287 129.803192 42.514603 -17.112923 -31.272581 89.382011 0.661489 -1.762483 -8.74171 29.382607 -52.201115 17.636635 -26.322731 52.411201 -19.466665 -14.395598 29.410395 -1e-06 -8.774824 -2e-06 14.19702 -16.723921 6.694952 -0.609779 -1.795654 -3.889328 -4.807086 -11.046814 -2.937852 5e-06 -20.976021 -2e-06 -5.019972 -25.033566 -4.031883 7e-06 -0.0 -1e-06 -10.634535 -5.686973 -3.565589 10.573275 -17.922955 -3.113903 3e-06 -13.821213 -2e-06 -0.501775 -31.181511 -4.027021 -10.763589 -58.41066 6.636136 -13.982716 -7.1502 -2.875043 13.772731 -8.401493 -3.218243 0.347735 -34.211559 0.771651 -0.963027 -17.733376 2.621019 -0.0 0.0 1e-06 -17.346424 -20.095222 -4.201784 21.757559 -1.638374 3.866429 2e-06 -6.338825 1e-06 -1.697585 -22.591751 -6.194009 -2e-06 -5e-06 -3e-06 43.447338 -84.603516 150.11261 41.325699 -19.402494 -35.743862 83.420998 0.280868 1.136262 30.852398 41.114456 34.72123 22.182114 -20.375895 49.933327 -16.701815 -16.743528 28.476536 -2e-06 -12.690601 -0.0 16.925308 -16.701105 2.232254 -0.10592 -1.513857 -4.275883 -5.039041 -5.612869 -2.953556 6e-06 -11.020523 -1e-06 -6.111296 -15.89533 -3.840475 1e-06 -0.0 1e-06 -10.283369 -5.680287 -4.34184 11.028295 -11.302406 -2.372633 -1.384269 -14.238581 -6.320124 -0.625435 -26.924189 -3.8276 -4.704759 -50.199234 -3.491747 -13.708524 -7.363475 -3.720942 18.14115 -14.052739 -3.242675 1.1e-05 -18.78727 -4e-06 -0.429714 -8.456044 2.555505 1e-06 -1e-06 0.0 -15.923531 -20.094479 -5.473588 30.41921 -7.190829 1.735923 2e-06 -8.162929 -0.0 -1.861901 -22.861467 -6.16794 -3e-06 -2e-06 -0.0 179.10556 -5.329757 -8.651049 13.312027 0.001064 0.050351 -77.870605 6.568216 -4.928948 -5.53347 1.542248 2.121217 -0.999999 -0.0 0.0 0.521806 -5.874958 -15.788608 14.178929 0.140843 -0.114956 -78.886208 -1.049627 -5.428324 -5.190423 0.611043 1.644917 -1.000002 -1e-06 -0.0 
0.0 0.0 0.0 0.0 -0.0 0.0 -0.595392 99.918373 0.814427 90.416702 3.101777 92.088455 -6.339344 -0.275287 -0.00158 -13.053245 -0.551089 0.164377 19.976089 0.656117 -2.162461 18.950111 -1.154919 2.423406 -2.611671 -0.507289 1.700829 -25.729919 1.008624 -0.067912 6e-06 -0.0 -0.0 0.030644 0.018176 0.104098 -0.029052 0.052914 0.100925 0.00368 -0.020813 0.116721 -119.707443 -79.218819 132.356094 41.040642 -15.772278 -29.539127 91.398872 0.400118 -1.797309 -5.586771 28.328287 -39.21291 17.636623 -26.322731 52.411182 -19.46666 -14.395594 29.410385 -2e-06 -8.774821 -2e-06 14.250026 -16.601633 6.590128 -0.609777 -1.795653 -3.889327 -4.807085 -11.046809 -2.937849 4e-06 -20.976015 0.0 -5.019973 -25.033556 -4.031879 6e-06 -2e-06 -0.0 -10.634529 -5.686969 -3.565587 10.573274 -17.922947 -3.113899 3e-06 -13.821208 3e-06 -0.501781 -31.181498 -4.027013 -10.641162 -57.859291 6.536957 -13.982708 -7.150196 -2.875042 13.772731 -8.401491 -3.218241 0.347735 -34.211544 0.771655 -0.96303 -17.73337 2.621021 0.0 0.0 -1e-06 -17.346413 -20.095215 -4.201782 21.757553 -1.638375 3.866428 -1e-06 -6.338824 1e-06 -1.697583 -22.591743 -6.194006 0.0 -5e-06 -2e-06 42.348953 -84.19532 151.547073 39.353996 -18.834253 -33.140377 87.690109 0.365995 1.145809 31.020357 39.425053 38.107067 22.182119 -20.375895 49.933319 -16.701809 -16.743525 28.476522 -2e-06 -12.690601 -0.0 17.067471 -16.674311 2.175675 -0.10592 -1.513857 -4.275881 -5.03904 -5.612869 -2.953556 5e-06 -11.020521 -3e-06 -6.111295 -15.895326 -3.840473 1e-06 -0.0 0.0 -10.283369 -5.680288 -4.34184 11.028295 -11.302401 -2.37263 -1.384269 -14.238579 -6.320121 -0.625439 -26.924183 -3.827598 -4.670396 -50.249737 -3.522889 -13.708523 -7.363472 -3.720941 18.141146 -14.052737 -3.242671 1e-05 -18.787266 -2e-06 -0.429714 -8.456041 2.555505 0.0 1e-06 0.0 -15.923532 -20.094481 -5.473588 30.41921 -7.190826 1.735928 1e-06 -8.162924 1e-06 -1.861902 -22.861467 -6.167941 -3e-06 -2e-06 -1e-06 178.914749 -5.218409 -8.527878 13.096372 0.015675 0.033091 -77.704987 6.349038 -4.9152 -5.579502 1.54378 2.114464 -0.999998 -0.0 0.0 0.285185 -5.924872 -15.668765 14.039322 0.14002 -0.098563 -78.716492 -1.115062 -5.473969 -5.174795 0.629087 1.654608 -1.000001 -0.0 0.0 
0.0 0.0 0.0 0.0 -0.0 0.0 -0.532585 99.942749 0.761842 90.422455 2.859071 92.028221 -6.304953 -0.272943 0.046983 -13.05338 -0.524413 0.188015 20.002586 0.616041 -2.207089 18.592281 -1.189523 2.462416 -2.547069 -0.542517 1.796535 -26.2068 0.952793 0.004013 6e-06 0.0 -0.0 0.056196 0.035641 0.152644 0.024127 0.076929 0.151178 0.051083 -0.01004 0.162671 -122.499092 -78.530403 135.587814 39.289875 -13.941089 -27.396435 94.111366 0.261505 -1.49285 -0.223878 26.688597 -20.431467 17.636625 -26.322729 52.411205 -19.466658 -14.395597 29.410389 0.0 -8.774822 -3e-06 14.499751 -16.624922 6.572915 -0.609774 -1.795654 -3.889327 -4.807092 -11.046811 -2.937852 2e-06 -20.976019 -2e-06 -5.01997 -25.033556 -4.031882 7e-06 -1e-06 0.0 -10.634535 -5.686974 -3.565589 10.573277 -17.922955 -3.113902 2e-06 -13.821209 0.0 -0.501778 -31.181507 -4.02702 -10.71472 -57.823318 6.762537 -13.982716 -7.1502 -2.875041 13.772731 -8.40149 -3.218243 0.347732 -34.211555 0.771653 -0.96303 -17.733368 2.621017 -1e-06 -0.0 -1e-06 -17.346418 -20.095221 -4.201783 21.757557 -1.638373 3.866429 -2e-06 -6.338823 -1e-06 -1.697589 -22.591747 -6.194008 -1e-06 -2e-06 -4e-06 41.514271 -83.64196 152.776077 37.155567 -18.340427 -30.050285 92.715088 0.459385 1.252188 31.223886 37.25066 42.283646 22.18211 -20.375898 49.933315 -16.701815 -16.743528 28.476532 -1e-06 -12.690601 -0.0 17.151575 -16.62266 2.157494 -0.10592 -1.513857 -4.275881 -5.039041 -5.612869 -2.953556 5e-06 -11.020523 -2e-06 -6.111298 -15.895334 -3.840468 -0.0 -0.0 1e-06 -10.283372 -5.680286 -4.341835 11.028294 -11.302403 -2.372633 -1.38427 -14.238585 -6.320122 -0.625439 -26.924191 -3.827599 -4.629572 -50.269157 -3.623502 -13.708523 -7.363477 -3.72094 18.141148 -14.052736 -3.242671 7e-06 -18.787271 -3e-06 -0.429713 -8.456043 2.555503 -1e-06 1e-06 0.0 -15.923536 -20.094484 -5.473581 30.41921 -7.190827 1.735925 0.0 -8.162927 1e-06 -1.861899 -22.861473 -6.16794 -4e-06 -3e-06 -0.0 178.66452 -5.123103 -8.479705 13.002204 0.01505 0.019933 -77.61927 6.164551 -4.925999 -5.603273 1.565316 2.105683 -0.999999 0.0 0.0 0.008773 -5.976053 -15.550676 13.963879 0.141009 -0.082828 -78.605728 -1.115725 -5.529549 -5.139802 0.626776 1.657851 -1.000001 0.0 -0.0 
0.0 0.0 0.0 0.0 -0.0 0.0 -0.453312 99.959892 0.725431 90.428787 2.631001 91.968094 -6.274828 -0.281066 0.063768 -13.081431 -0.509773 0.184086 20.004883 0.56589 -2.223587 18.350359 -1.241283 2.444476 -2.526801 -0.550454 1.870608 -26.595175 0.844321 0.106153 6e-06 -0.0 0.0 0.071026 0.054348 0.195987 0.053576 0.097587 0.193204 0.075792 0.006612 0.207004 -124.007034 -77.89167 137.515182 38.085419 -13.050984 -25.534838 96.934525 0.082475 -0.959018 4.207191 25.005226 -6.615227 17.636633 -26.322733 52.41119 -19.466658 -14.395597 29.410389 -1e-06 -8.774821 -1e-06 14.582787 -16.959293 6.636156 -0.609777 -1.795653 -3.889327 -4.807088 -11.046811 -2.93785 2e-06 -20.976019 2e-06 -5.019969 -25.03356 -4.031883 6e-06 0.0 1e-06 -10.634533 -5.686971 -3.565585 10.573274 -17.922949 -3.113904 3e-06 -13.821206 -0.0 -0.501778 -31.181505 -4.027018 -11.000536 -58.106621 7.07645 -13.982716 -7.150199 -2.875041 13.772731 -8.40149 -3.218244 0.347733 -34.211555 0.771656 -0.963035 -17.73337 2.621023 1e-06 -0.0 1e-06 -17.346424 -20.095221 -4.201779 21.757559 -1.638375 3.866429 0.0 -6.338823 1e-06 -1.697592 -22.591747 -6.194007 1e-06 -5e-06 -1e-06 41.721649 -83.071335 153.079041 35.249809 -18.398161 -27.281067 97.572609 0.47428 1.435444 31.36445 35.124805 46.14122 22.182116 -20.3759 49.933323 -16.701811 -16.743525 28.47653 -0.0 -12.690601 1e-06 17.104206 -16.560963 2.183479 -0.105921 -1.513854 -4.275882 -5.039041 -5.61287 -2.953557 4e-06 -11.020523 -3e-06 -6.111297 -15.895334 -3.84047 -0.0 -0.0 -0.0 -10.283373 -5.680286 -4.341835 11.028292 -11.302402 -2.372632 -1.384266 -14.238583 -6.320122 -0.625439 -26.924185 -3.827599 -4.59769 -50.124939 -3.648215 -13.708524 -7.363477 -3.72094 18.141148 -14.052739 -3.242674 8e-06 -18.787271 -3e-06 -0.429714 -8.456044 2.555504 0.0 1e-06 0.0 -15.923536 -20.094484 -5.473584 30.41921 -7.190825 1.735925 -0.0 -8.162928 1e-06 -1.861902 -22.861467 -6.16794 -4e-06 -4e-06 -0.0 178.40538 -5.040797 -8.433352 13.002616 0.01951 0.010289 -77.592476 6.048332 -4.946182 -5.55979 1.571236 2.101115 -0.999999 1e-06 0.0 -0.252296 -6.032927 -15.416246 13.934117 0.13838 -0.082475 -78.535255 -1.128258 -5.586921 -5.114513 0.634118 1.66385 -1.000002 0.0 -0.0 
0.0 0.0 0.0 0.0 -0.0 0.0 -0.369799 99.968628 0.70671 90.440765 2.449687 91.909317 -6.259367 -0.303799 0.055208 -13.106059 -0.508281 0.147694 19.982153 0.519685 -2.215198 18.23576 -1.315966 2.433419 -2.544297 -0.542093 1.895334 -26.873049 0.711609 0.253538 6e-06 -0.0 0.0 0.070089 0.065265 0.213328 0.063541 0.108095 0.210174 0.0836 0.017735 0.22476 -124.63945 -77.389214 138.491547 37.419006 -13.481034 -24.290388 99.342323 -0.17234 -0.533691 6.568499 23.836927 0.326075 17.636635 -26.322729 52.411201 -19.46666 -14.395597 29.410389 2e-06 -8.774823 -1e-06 14.652397 -17.22282 6.636026 -0.609776 -1.795654 -3.889332 -4.807092 -11.046811 -2.937851 4e-06 -20.976021 3e-06 -5.01997 -25.033562 -4.031882 7e-06 0.0 2e-06 -10.634537 -5.686971 -3.565591 10.573275 -17.922951 -3.113899 1e-06 -13.821211 1e-06 -0.501779 -31.181507 -4.027017 -11.215384 -58.308807 7.180047 -13.982716 -7.150198 -2.875046 13.77273 -8.401493 -3.218241 0.347735 -34.211555 0.771655 -0.963029 -17.73337 2.621021 -0.0 -1e-06 -1e-06 -17.346422 -20.095221 -4.201786 21.757557 -1.638375 3.866431 -1e-06 -6.338824 2e-06 -1.697589 -22.591749 -6.194009 -2e-06 -2e-06 -2e-06 42.687534 -82.495178 152.647598 33.746532 -19.16769 -25.115627 101.863022 0.260121 1.711246 31.398647 33.528057 48.942356 22.182117 -20.3759 49.933327 -16.701817 -16.743532 28.47654 -1e-06 -12.690604 -0.0 17.016113 -16.539873 2.242332 -0.10592 -1.513859 -4.275881 -5.039042 -5.612872 -2.953558 5e-06 -11.020525 -3e-06 -6.111299 -15.895334 -3.840472 1e-06 -1e-06 -0.0 -10.283373 -5.680288 -4.34184 11.028297 -11.302406 -2.372633 -1.384267 -14.238583 -6.320124 -0.625436 -26.924192 -3.827604 -4.578564 -49.968048 -3.600877 -13.708529 -7.36348 -3.720939 18.141153 -14.052742 -3.242676 7e-06 -18.787271 -3e-06 -0.429714 -8.456043 2.555505 0.0 -0.0 0.0 -15.923539 -20.094484 -5.473585 30.419218 -7.190827 1.735924 1e-06 -8.162929 1e-06 -1.861904 -22.861479 -6.167943 -3e-06 -3e-06 -1e-06 178.175522 -4.961558 -8.377161 13.065688 0.031554 -0.010955 -77.607323 5.954238 -4.96419 -5.50924 1.564104 2.098485 -0.999998 0.0 -0.0 -0.472628 -6.09692 -15.292997 13.958577 0.126251 -0.080157 -78.50396 -1.195483 -5.651904 -5.100331 0.644779 1.670129 -1.000002 1e-06 -0.0 
